<?xml version="1.0" encoding="UTF-8"?>
<svg width="1000" height="1000" version="1.1" xmlns="http://www.w3.org/2000/svg">
 <g>
  <path d="m467.43 109.56c20.775-1.838 41.71-1.44 62.492 0.102 77.436 5.692 152.73 35.606 213.39 84.008 29.117 23.408 55.349 50.616 76.696 81.328 22.825 32.133 40.833 67.748 52.745 105.33 5.031 15.056 9.033 30.451 11.972 46.052 3.975 21.98 6.939 44.238 6.972 66.61 1.56 63.821-12.848 128.03-41.697 184.99-29.471 58.705-73.966 109.74-128.06 146.98-70.607 49.262-157.98 73.797-243.91 68.942-67.671-3.505-134.46-24.721-191.34-61.645-62.216-39.616-112.6-97.371-143.93-164.1-29.332-62.38-41.672-132.59-35.505-201.23 3.625-41.376 13.771-82.205 30.2-120.37 15.965-37.016 37.577-71.628 63.945-102.13 32.038-36.968 70.903-68.057 114.22-90.825 14.342-7.935 29.58-14.077 44.731-20.264 6.477-2.107 12.868-4.469 19.325-6.643 28.511-8.908 57.954-14.832 87.748-17.132z" fill="#000"/>
  <g fill="none" stroke="#000" stroke-width="3.5">
   <path d="m498.8 136.5c6.908 7.071 14.632 13.709 24.061 17.123 11.705 4.289 24.36 3.788 36.613 4.634 26.571 1.548 53.342 1.52 79.652 5.939 16.706 2.984 34.242 8.849 45.174 22.605 6.824 8.883 13.244 19.892 10.908 31.538-3.02 14.829-12.438 27.254-21.608 38.896-12.972 16.564-28.37 31.31-39.302 49.406-4.57 7.244-6.961 16.775-3.029 24.822 5.159 11.709 20.741 17.333 32.123 11.386 8.048-4.048 12.113-12.574 16.178-20.134 10.724-20.427 14.45-43.771 25.756-63.919 5.914-10.841 16.214-19.505 28.43-22.135 9.69-2.71 20.397-1.464 29.112 3.604 12.993 7.252 21.817 19.795 29.364 32.25 12.088 20.512 20.176 42.99 30.265 64.481 3.256 6.531 6.54 13.204 11.457 18.68 7.443 7.605 14.963 15.236 23.752 21.317-5.009 8.002-9.193 16.788-10.186 26.286-1.546 11.346 1.776 22.51 4.113 33.504 4.743 21.484 10.268 42.802 14.248 64.449 2.821 16.477 5.129 33.624 1.147 50.112-3.25 13.757-12.375 25.78-24.199 33.367-9.565 5.288-21.084 3.5-31.195 0.937-21.437-5.819-40.914-16.815-61.202-25.561-9.45-3.868-19.256-8.198-29.691-7.686-8.68 0.186-17.219 5.235-21.071 13.095-3.636 6.972-3.718 15.913 0.558 22.629 3.13 5.024 8.388 8.42 13.99 10.106 15.147 4.869 31.163 5.898 46.954 6.689 14.272 0.893 28.984 1.307 42.412 6.768 14.626 6.016 25.06 20.711 26.29 36.413 0.538 10.275-3.196 20.298-8.492 28.952-13.892 21.964-34.784 38.091-54.684 54.291-9.837 8.229-20.425 15.816-28.638 25.76-8.034 11.336-15.33 24.152-16.116 38.335-5.36-1.028-10.743-2.088-16.212-2.187-10.348-0.331-20.518 2.889-29.438 7.981-24.766 14.068-48.577 29.794-73.762 43.13-13.486 6.809-27.719 13.06-42.943 14.35-13.293 1.107-26.667-3.309-37.363-11.1-5.286-3.826-8.646-9.78-10.292-16-3.348-12.489-2.097-25.582-0.62-38.252 2.587-22.212 8.61-44.121 8.116-66.617-0.05-7.307-2.441-15.368-8.804-19.617-10.629-7.651-27.22-3.558-33.426 7.878-4.042 6.882-3.231 15.152-2.784 22.779 1.556 25.112 11.105 49.319 9.826 74.649-1.09 16.036-10.376 31.499-24.61 39.206-9.788 5.169-21.412 5.324-32.03 3.049-15.609-3.501-29.993-10.856-43.736-18.832-17.066-9.948-33.052-21.64-50.229-31.401-9.184-5.356-19.704-7.831-30.161-9.159-7.031-0.861-14.24-0.808-21.123 0.997-1.015-7.94-2.423-15.989-6.125-23.174-5.734-12.115-16.898-20.16-26.895-28.538-17.233-14.369-35.04-28.072-51.64-43.184-11.88-11.136-23.785-23.122-30.183-38.376-5.461-12.553-5.38-27.154-0.802-39.952 0.196-0.421 0.588-1.262 0.784-1.682 0.694-1.367 1.394-2.722 2.126-4.055 0.156-0.172 0.468-0.517 0.624-0.691 10.335-11.81 25.843-16.953 40.48-21.121 21.348-6.021 43.591-8.951 64.334-17.02 7.581-2.692 14.99-8.101 17.081-16.245 3.463-12.319-4.757-26.452-17.175-29.539-5.361-1.481-11.028-0.547-16.116 1.46-15.297 5.685-28.818 15.035-42.077 24.36-10.788 7.411-21.808 14.989-34.429 18.907-10.454 3.253-22.023 1.906-31.742-2.992-0.32-0.163-0.96-0.49-1.28-0.654-4.49-2.486-8.62-5.68-11.893-9.648-8.211-9.978-10.729-23.321-10.943-35.924-0.321-26.389 7.047-51.982 12.838-77.496 2.16-10.006 4.77-20.092 4.558-30.4-0.981-13.073-3.06-26.686-10.52-37.8 8.744-3.33 17.318-7.721 23.839-14.576 8.051-7.806 12.215-18.436 17.032-28.324 10.281-20.981 19.528-42.48 30.721-63.008 7.74-13.782 16.366-27.709 29.192-37.345 10.674-8.335 24.668-11.74 38.054-10.719 7.26 0.723 13.538 4.988 18.786 9.791 6.595 6.339 11.748 13.965 16.61 21.664 10.044 16.916 17.817 35.055 27.644 52.088 3.314 5.575 6.734 11.184 11.238 15.896 4.672 4.915 11.45 8.128 18.323 7.421 10.72-0.826 20.168-9.637 21.811-20.244 0.988-6.23-0.902-12.637-4.492-17.744-12.315-18.658-30.784-31.785-46.726-47.064-9.145-8.964-17.801-19.604-19.838-32.637-1.827-12.304 1.588-25.779 10.237-34.937 9.595-10.247 23.444-15.01 36.855-17.828 30.316-6.326 61.461-2.908 92.093-5.691 9.324-0.919 18.113-4.545 26.427-8.687 6.661-3.557 12.988-8.057 17.636-14.085z" fill="#fff"/>
  </g>
  <g fill="none" stroke="#000" stroke-width="9.5">
   <path d="m499.02 314.67c0.07-23.25 0.34-116.25 0.41-139.5"/>
   <path d="m689.16 438.28c22.35-6.724 111.75-33.63 134.1-40.354"/>
   <path d="m612.75 646.07c14.159 18.555 70.798 92.769 84.955 111.32"/>
   <path d="m392.77 645.35c-13.475 17.553-67.365 87.771-80.84 105.32"/>
   <path d="m300.73 437.03c-19.141-5.945-95.716-29.721-114.86-35.667"/>
  </g>
   <path d="m419.11 333.63c15.921-2.524 32.318 1.056 46.618 8.19 12.387 6.309 23.606 14.85 33.092 25.006 12.01-12.653 26.487-23.31 43.008-29.226 15.15-5.623 32.13-6.324 47.614-1.606 16.165 4.835 30.474 14.654 42.284 26.547 14.496 13.825 26.308 30.76 32.809 49.799 8.449 23.701 8.751 49.708 3.816 74.2-6.825 33.506-22.803 64.524-42.765 92.045-33.216 45.291-77.427 81.989-126.57 108.89-11.5-5.651-22.242-12.759-32.98-19.728-32.595-21.994-62.271-48.548-86.663-79.446-21.477-27.426-39.157-58.409-47.955-92.302-6.501-25.227-7.762-52.283-0.34-77.456 5.852-20.91 18.05-39.623 33.439-54.783 14.736-14.967 33.431-27.233 54.595-30.131z" fill="#000" stroke-width="3.5"/>
  <path d="m474.78 385.3c17.288 0.172 34.579 1e-3 51.868 0.074-0.034 15.886 0.395 52.114 0.85 54.311 18.928 8e-3 37.858-0.087 56.788 0.028 0.2 18.569-0.038 37.141 0.116 55.712-19.208 0.06-38.427-0.287-57.626 0.177-0.34 50.316-0.053 100.64-0.15 150.96-18.087-0.079-36.174-0.066-54.259-2e-3 -0.164-44.186-0.031-88.374-0.069-132.56-0.075-6.948 0.312-13.911-0.298-20.841-9.978-0.78-20.001-0.187-29.998-0.38-8.71-0.294-17.42 1.088-26.103-0.079-0.489-10.892-0.089-21.8-0.216-32.699 0.148-7.19-0.421-14.418 0.497-21.572 13.94 0.078 27.882 0.035 41.824 0.044 5.515-0.036 11.05 0.255 16.547-0.364 0.087-17.6-0.404-35.22 0.229-52.806z" fill="#fff"/>
 </g>
</svg>
