<svg xmlns="http://www.w3.org/2000/svg" viewBox="14911.2 489.6 633.5999999999985 436.79999999999995">
  <path d="M 15343.2 525.6 C 15343.2 547.2 15328.8 564 15307.2 564 C 15288 564 15271.2 547.2 15271.2 525.6 C 15271.2 506.4 15288 489.6 15307.2 489.6 C 15328.8 489.6 15343.2 506.4 15343.2 525.6 Z M 15496.8 700.8 C 15496.8 717.6 15482.4 729.6 15468 729.6 C 15451.2 729.6 15439.2 717.6 15439.2 700.8 C 15439.2 684 15451.2 672 15468 672 C 15482.4 672 15496.8 684 15496.8 700.8 Z M 15184.8 525.6 C 15184.8 547.2 15168 564 15148.8 564 C 15127.2 564 15112.8 547.2 15112.8 525.6 C 15112.8 506.4 15127.2 489.6 15148.8 489.6 C 15168 489.6 15184.8 506.4 15184.8 525.6 Z M 15016.8 700.8 C 15016.8 717.6 15004.8 729.6 14988 729.6 C 14973.6 729.6 14959.2 717.6 14959.2 700.8 C 14959.2 684 14973.6 672 14988 672 C 15004.8 672 15016.8 684 15016.8 700.8 Z M 15544.8 825.6 L 15520.8 765.6 C 15511.2 753.6 15496.8 744 15482.4 739.2 C 15477.6 736.8 15472.8 736.8 15468 736.8 C 15456 736.8 15448.8 739.2 15439.2 744 L 15393.6 712.8 L 15369.6 602.4 C 15367.2 600 15364.8 597.6 15362.4 595.2 C 15355.2 588 15345.6 583.2 15333.6 580.8 C 15324 578.4 15316.8 578.4 15307.2 578.4 C 15300 578.4 15290.4 578.4 15283.2 580.8 C 15271.2 583.2 15261.6 588 15252 595.2 C 15249.6 597.6 15247.2 600 15247.2 602.4 L 15228 681.6 L 15208.8 602.4 C 15208.8 600 15206.4 597.6 15204 595.2 C 15194.4 588 15184.8 583.2 15175.2 580.8 C 15165.6 578.4 15156 578.4 15148.8 578.4 C 15139.2 578.4 15132 578.4 15122.4 580.8 C 15112.8 583.2 15100.8 588 15093.6 595.2 C 15091.2 597.6 15088.8 600 15088.8 602.4 L 15062.4 712.8 L 15016.8 744 C 15007.2 739.2 15000 736.8 14988 736.8 C 14983.2 736.8 14978.4 736.8 14973.6 739.2 C 14959.2 741.6 14944.8 751.2 14935.2 765.6 L 14911.2 825.6 C 14906.4 832.8 14908.8 840 14916 842.4 C 14918.4 844.8 14920.8 844.8 14923.2 844.8 C 14930.4 844.8 14935.2 842.4 14937.6 837.6 L 14952 799.2 L 14952 837.6 L 14952 926.4 L 14980.8 926.4 L 14980.8 837.6 L 14995.2 837.6 L 14995.2 926.4 L 15024 926.4 L 15024 772.8 L 15026.4 772.8 L 15084 734.4 C 15086.4 732 15088.8 727.2 15088.8 724.8 L 15112.8 628.8 L 15112.8 926.4 L 15141.6 926.4 L 15141.6 758.4 L 15156 758.4 L 15156 926.4 L 15184.8 926.4 L 15184.8 628.8 L 15213.6 748.8 C 15216 753.6 15220.8 758.4 15228 758.4 C 15235.2 758.4 15240 753.6 15242.4 748.8 L 15271.2 628.8 L 15271.2 688.8 L 15247.2 794.4 L 15271.2 794.4 L 15271.2 926.4 L 15300 926.4 L 15300 794.4 L 15314.4 794.4 L 15314.4 926.4 L 15343.2 926.4 L 15343.2 794.4 L 15369.6 794.4 L 15343.2 688.8 L 15343.2 628.8 L 15367.2 724.8 C 15369.6 727.2 15372 732 15374.4 734.4 L 15432 772.8 L 15432 818.4 L 15417.6 859.2 L 15432 859.2 L 15432 926.4 L 15460.8 926.4 L 15460.8 859.2 L 15475.2 859.2 L 15475.2 926.4 L 15504 926.4 L 15504 859.2 L 15518.4 859.2 L 15504 820.8 L 15504 799.2 L 15520.8 837.6 C 15523.2 842.4 15528 844.8 15532.8 844.8 C 15535.2 844.8 15540 844.8 15542.4 842.4 C 15547.2 840 15549.6 830.4 15544.8 825.6 Z" fill="#000000"/>
</svg>