<svg 
    width="28" 
    height="28" 
    xmlns="http://www.w3.org/2000/svg" 
    xmlns:xlink="http://www.w3.org/1999/xlink" 
    overflow="hidden">
    <defs>
        <clipPath 
            id="clip0">
            <rect x="674" y="19" width="28" height="28"/>
        </clipPath>
    </defs>
    <g clip-path="url(#clip0)" transform="translate(-674 -19)">
        <path d="M685.375 23.375C685.375 24.5026 684.461 25.4167 683.333 25.4167 682.206 25.4167 681.292 24.5026 681.292 23.375 681.292 22.2474 682.206 21.3333 683.333 21.3333 684.461 21.3333 685.375 22.2474 685.375 23.375Z"/>
        <path d="M694.708 23.375C694.708 24.5026 693.794 25.4167 692.667 25.4167 691.539 25.4167 690.625 24.5026 690.625 23.375 690.625 22.2474 691.539 21.3333 692.667 21.3333 693.794 21.3333 694.708 22.2474 694.708 23.375Z"/>
        <path d="M698.179 34.1958 696.517 28.0417C696.458 27.8667 696.371 27.6917 696.254 27.575 695.7 26.9917 695 26.5542 694.242 26.2917 693.746 26.0875 693.221 26 692.667 26 692.112 26 691.588 26.0875 691.092 26.2625 690.304 26.525 689.633 26.9625 689.079 27.5458 688.963 27.6917 688.875 27.8375 688.817 28.0125L688 31.075 687.183 28.0417C687.125 27.8667 687.037 27.6917 686.921 27.575 686.367 26.9917 685.667 26.5542 684.908 26.2917 684.412 26.0875 683.888 26 683.333 26 682.779 26 682.254 26.0875 681.758 26.2625 680.971 26.525 680.3 26.9625 679.746 27.5458 679.629 27.6917 679.542 27.8375 679.483 28.0125L677.85 34.1667C677.733 34.6333 677.967 35.1583 678.463 35.275 678.521 35.3333 678.579 35.3333 678.667 35.3333 679.046 35.3333 679.396 35.0708 679.513 34.6917L681 29.0917 681 35.625 681 44.6667 682.75 44.6667 682.75 35.625 683.917 35.625 683.917 44.6667 685.667 44.6667 685.667 35.625 685.667 29.0917 687.154 34.6625C687.271 35.0417 687.621 35.3042 688 35.3042 688.088 35.3042 688.146 35.3042 688.233 35.275 688.496 35.1875 688.7 34.9833 688.787 34.75 688.817 34.75 690.333 29.0917 690.333 29.0917L690.333 31.4542 688.671 37.6667 690.333 37.6667 690.333 44.6667 692.083 44.6667 692.083 37.6667 693.25 37.6667 693.25 44.6667 695 44.6667 695 37.6667 696.662 37.6667 695 31.4542 695 29.0917 696.487 34.6625C696.604 35.0417 696.954 35.3042 697.333 35.3042 697.421 35.3042 697.479 35.3042 697.567 35.275 698.033 35.1583 698.296 34.6625 698.179 34.1958Z"/>
    </g>
</svg>